<?xml version="1.0" encoding="UTF-8"?>
<svg width="136px" height="50px" viewBox="0 0 136 50" version="1.1" xmlns="http://www.w3.org/2000/svg" xmlns:xlink="http://www.w3.org/1999/xlink">
    <!-- Generator: Sketch 47 (45396) - http://www.bohemiancoding.com/sketch -->
    <title>LOGo</title>
    <desc>Created with Sketch.</desc>
    <defs>
        <polygon id="path-1" points="133.27392 9.12913577 0 9.12913577 0 0.322765667 133.27392 0.322765667"></polygon>
    </defs>
    <g id="Page-1" stroke="none" stroke-width="1" fill="none" fill-rule="evenodd">
        <g id="Artboard" transform="translate(-1376.000000, -923.000000)">
            <g id="LOGo" transform="translate(1376.167969, 922.972656)">
                <path d="M36.9959241,26.4239792 C33.4528051,26.4442661 30.2657224,25.3984729 27.6223304,23.0299694 C24.6888348,20.4007783 23.5304489,16.9803954 23.559865,13.1025414 C23.5852237,9.88502821 24.4372764,6.96167607 26.5755228,4.48869462 C28.491627,2.27234333 30.9301206,0.953690383 33.7773966,0.355224816 C37.3539891,-0.39742171 40.794659,0.0245472317 43.9614547,1.83617351 C47.9549444,4.12150049 49.9268378,7.70113606 50.1702814,12.2606322 C50.3843089,16.2683228 49.426764,19.8814319 46.4638523,22.7621814 C43.8346612,25.3193537 40.6080188,26.3854339 36.9959241,26.4239792 M37.0821437,6.48188926 L37.0821437,6.48188926 C34.0796724,6.5559367 31.9728708,8.17382243 31.1684925,10.8375014 C30.6724761,12.4797315 30.7039209,14.1077607 31.1979086,15.7510051 C31.9150529,18.1337095 33.5045369,19.5984287 35.9217292,19.9798237 C38.3703662,20.3642617 40.4761536,19.5517686 41.8150935,17.3952639 C43.3376304,14.9425694 43.3660322,12.3214931 42.1518571,9.72577551 C41.11215,7.50232377 39.2579211,6.50724797 37.0821437,6.48188926" id="Fill-1" fill="#1A1A18"></path>
                <path d="M125.590941,10.8431817 C125.590941,10.1087935 125.680203,9.38150565 125.571668,8.6805909 C125.382999,7.44714322 124.51066,6.7553576 123.393862,6.34556084 C121.481815,5.64566043 119.499779,5.60711519 117.497455,5.77143963 C115.649312,5.92562059 113.861016,6.29991516 112.134595,7.20775699 C111.816089,5.43873335 111.508742,3.74172845 111.198351,2.02545092 C112.714802,1.2707757 114.238353,0.850835453 115.803493,0.568846593 C119.151857,-0.0357050643 122.506307,-0.129025119 125.824241,0.710855372 C129.323743,1.59739589 131.779481,3.61899229 132.45808,7.33962229 C132.626461,8.2596363 132.637619,9.21515251 132.647763,10.1534248 C132.670078,12.9083951 132.655878,15.6643798 132.657906,18.4203644 C132.657906,18.7824868 132.663992,19.1466379 132.685294,19.5067316 C132.810059,21.4390653 132.982498,21.6287485 134.958448,21.9208808 L134.958448,25.8971266 C133.007856,26.3890856 131.005533,26.6477444 129.022482,25.7145439 C127.908727,25.1901258 127.393438,24.2204087 127.149994,23.074195 C127.100291,22.8449522 127.091162,22.6075947 127.049574,22.2647449 C124.65774,25.7013574 121.232286,26.5452952 117.46601,26.3343108 C113.249364,26.0969532 110.010549,23.2679355 109.415127,19.9297149 C108.444395,14.4978791 111.187193,10.4394711 116.661632,9.62089188 C120.123603,9.10255984 121.115636,9.32064475 125.590941,10.8431817 M125.454004,15.5883036 L125.454004,15.5883036 C124.303733,14.8001549 122.999281,14.3842721 121.634982,14.2118328 C120.215909,14.0333075 118.814079,14.1266276 117.610047,15.0547564 C116.507451,15.9078234 116.089539,17.2619785 116.49325,18.6567076 C116.804655,19.7309026 117.898122,20.5707831 119.188374,20.6935192 C120.431965,20.812198 121.639039,20.6235292 122.787282,20.1346132 C124.849452,19.2582162 125.655859,17.8726163 125.454004,15.5883036" id="Fill-3" fill="#1A1A18"></path>
                <path d="M93.3972464,15.7039393 C92.1059809,15.7830585 90.8816623,15.8581203 89.5376507,15.9392682 L89.5376507,25.8271366 L82.3205617,25.8271366 L82.3205617,0.802146729 L89.4331728,0.802146729 L89.4331728,10.0530043 C91.0652594,10.0459039 92.5695381,10.2000848 94.0413577,9.69798236 C95.9179022,9.05792851 97.2324978,7.79506473 97.7619877,5.90431927 C98.2255449,4.24687396 98.4547876,2.52451034 98.8037235,0.742300173 L105.422347,0.742300173 C105.566384,5.90026188 104.541892,10.4435284 99.6121592,13.2745749 C99.8048854,13.6366973 99.9590663,13.9511453 100.138606,14.2503781 C102.16426,17.6322157 104.198028,21.0079672 106.213539,24.3969053 C106.454954,24.8056877 106.591891,25.2783741 106.829248,25.8484379 L99.2348216,25.8484379 C97.3126313,22.5081885 95.3529102,19.1020065 93.3972464,15.7039393" id="Fill-5" fill="#1A1A18"></path>
                <path d="M69.585823,0.764108664 L76.6152576,0.764108664 L76.6152576,25.869232 L69.5168473,25.869232 L69.5168473,17.8183486 C68.2093522,18.110481 67.0134354,18.471589 65.7901312,18.6308417 C62.5685607,19.0528106 59.4991424,18.6693869 56.8709656,16.5280974 C54.837197,14.8706521 53.7843034,12.6258991 53.2872726,10.1275589 C52.6756205,7.05205451 53.0529582,3.93394747 52.9484803,0.772223451 L60.2791763,0.772223451 C60.2791763,1.13637453 60.2751189,1.51472649 60.2791763,1.8940928 C60.3055493,3.92380399 60.2517889,5.95858691 60.3765537,7.98221201 C60.5418925,10.6651636 62.4914702,12.4179576 65.1673213,12.4554885 C66.8196949,12.4798329 67.8665025,12.1724853 69.585823,11.1236491 L69.585823,0.764108664 Z" id="Fill-7" fill="#1A1A18"></path>
                <polygon id="Fill-9" fill="#1A1A18" points="14.4549721 25.7632326 7.40626498 25.7632326 7.40626498 7.17834089 0.000507174209 7.17834089 0.000507174209 0.796060639 21.7724816 0.796060639 21.7724816 7.10429345 14.4549721 7.10429345"></polygon>
                <g id="Group-13" transform="translate(0.000000, 39.989875)">
                    <mask id="mask-2" fill="white">
                        <use xlink:href="#path-1"></use>
                    </mask>
                    <g id="Clip-12"></g>
                    <path d="M2.98898048,2.77951754 C2.22720482,2.77951754 1.59932315,3.11323817 1.21894249,3.58896757 C1.32240603,2.03701449 2.83784257,1.94166574 4.54093356,1.63736122 L4.54093356,0.391741359 C1.45731437,0.903987311 -0.000304304526,1.70329386 -0.000304304526,4.25539449 C-0.000304304526,6.07310685 0.885221865,7.34915716 2.60859983,7.34915716 C4.0073863,7.34915716 5.09375345,6.35915311 5.09375345,4.90254878 C5.09375345,3.60722585 4.1980838,2.77951754 2.98898048,2.77951754 L2.98898048,2.77951754 Z M2.59947069,6.21612998 C1.80827893,6.21612998 1.33254952,5.64505182 1.31429125,4.61650252 C1.5709214,4.21684925 2.09432518,3.89428645 2.64613072,3.89428645 C3.30342849,3.89428645 3.77002877,4.32234148 3.77002877,4.99789753 C3.77002877,5.70286968 3.28517022,6.21612998 2.59947069,6.21612998 L2.59947069,6.21612998 Z M10.3460496,6.18671387 C10.1563664,6.18671387 10.0133433,6.07310685 10.0133433,5.82560584 L10.0133433,4.21684925 C10.0133433,3.01788941 9.0710136,2.3514625 7.74728892,2.3514625 C6.87190623,2.3514625 6.32922983,2.55027479 5.98739441,2.73184316 L5.98739441,3.85574121 C6.35763158,3.63664195 6.94798236,3.45507358 7.42371177,3.45507358 C8.03333517,3.45507358 8.68048946,3.57882409 8.68048946,4.35074324 L8.68048946,4.49275202 C8.36604145,4.33147062 7.95725904,4.19757663 7.31010475,4.19757663 C6.3769042,4.19757663 5.43457452,4.68446387 5.43457452,5.75967319 C5.43457452,6.73040463 6.16693408,7.34915716 7.18635424,7.34915716 C7.97653166,7.34915716 8.49993544,7.03470915 8.82249824,6.70200287 C9.00406661,7.12092877 9.41284902,7.31162627 9.89872191,7.31162627 C10.1563664,7.31162627 10.4606709,7.23555014 10.6219523,7.11078528 L10.6219523,6.12991036 C10.5367471,6.17758474 10.4312548,6.18671387 10.3460496,6.18671387 L10.3460496,6.18671387 Z M8.68048946,5.82560584 C8.4613902,6.11063774 8.05260779,6.31147873 7.60426579,6.31147873 C7.13766552,6.31147873 6.75728486,6.12991036 6.75728486,5.69272619 C6.75728486,5.28292943 7.13766552,5.07397366 7.6904854,5.07397366 C8.07188041,5.07397366 8.42385931,5.17845155 8.68048946,5.34886208 L8.68048946,5.82560584 Z M11.2975084,7.22540665 L12.6394913,7.22540665 L12.6394913,5.35900556 L14.5910977,5.35900556 L14.5910977,7.22540665 L15.9330807,7.22540665 L15.9330807,2.46506953 L14.5910977,2.46506953 L14.5910977,4.23612187 L12.6394913,4.23612187 L12.6394913,2.46506953 L11.2975084,2.46506953 L11.2975084,7.22540665 Z M16.9890174,7.22540665 L18.3310003,7.22540665 L18.3310003,5.1733798 L20.2065305,7.22540665 L21.9390376,7.22540665 L19.5492328,4.61244513 L21.6154605,2.46506953 L19.9681587,2.46506953 L18.3310003,4.20061967 L18.3310003,2.46506953 L16.9890174,2.46506953 L16.9890174,7.22540665 Z M24.4028899,8.43349562 L25.6880694,8.43349562 L25.6880694,7.22540665 L29.1145384,7.22540665 L29.1145384,8.43349562 L30.3804452,8.43349562 L30.3804452,6.10150861 L29.6004112,6.10150861 L29.6004112,2.46506953 L25.6018498,2.46506953 L25.5825772,3.38914094 C25.5643189,4.74431042 25.3644922,5.55680351 25.011499,6.10150861 L24.4028899,6.10150861 L24.4028899,8.43349562 Z M26.3818837,6.10150861 C26.7156043,5.29002987 26.801824,4.42986241 26.801824,3.58896757 L28.2858157,3.58896757 L28.2858157,6.10150861 L26.3818837,6.10150861 Z M32.9508041,3.58896757 L34.4165375,3.58896757 L34.4165375,7.22540665 L35.7585205,7.22540665 L35.7585205,2.46506953 L31.6554811,2.46506953 L31.626065,3.86487034 C31.5976633,5.26061377 31.512458,6.12078123 30.8561746,6.12078123 C30.7415532,6.12078123 30.6654771,6.11063774 30.5792575,6.08325034 L30.5792575,7.17773228 C30.7222806,7.25380841 30.903849,7.26395189 31.084403,7.26395189 C32.6556287,7.26395189 32.8828427,5.69171185 32.9305171,4.25640883 L32.9508041,3.58896757 Z M36.394517,7.22540665 L37.89981,7.22540665 L38.9942919,5.6551953 L39.8027276,5.6551953 L39.8027276,7.22540665 L41.1447106,7.22540665 L41.1447106,2.46506953 L38.5936243,2.46506953 C37.2698996,2.46506953 36.7282376,3.1893143 36.7282376,4.01195086 C36.7282376,4.72199476 37.0710873,5.19772417 37.6695529,5.41783777 L36.394517,7.22540665 Z M38.8127236,4.68446387 C38.3653959,4.68446387 38.0986223,4.47246505 38.0986223,4.09817048 C38.0986223,3.72489026 38.3653959,3.51289144 38.8127236,3.51289144 L39.8027276,3.51289144 L39.8027276,4.68446387 L38.8127236,4.68446387 Z M44.6371122,7.22540665 L45.9790952,7.22540665 L45.9790952,3.58896757 L47.873898,3.58896757 L47.873898,7.22540665 L49.215881,7.22540665 L49.215881,2.46506953 L44.6371122,2.46506953 L44.6371122,7.22540665 Z M53.1748828,2.3514625 C52.3755763,2.3514625 51.8805743,2.7034414 51.6138006,3.05542031 L51.6138006,2.46506953 L50.2718177,2.46506953 L50.2718177,9.12933864 L51.6138006,9.12933864 L51.6138006,6.64519936 C51.8805743,6.98602043 52.3755763,7.34915716 53.1748828,7.34915716 C54.488464,7.34915716 55.4115211,6.24453173 55.4115211,4.84980266 C55.4115211,3.45507358 54.488464,2.3514625 53.1748828,2.3514625 L53.1748828,2.3514625 Z M52.7945022,3.52202058 C53.5461344,3.52202058 54.0786673,4.10324222 54.0786673,4.8548744 C54.0786673,5.59737744 53.5461344,6.17758474 52.7945022,6.17758474 C52.2426966,6.17758474 51.8136273,5.84487846 51.6138006,5.47362694 L51.6138006,4.23612187 C51.8136273,3.85574121 52.2426966,3.52202058 52.7945022,3.52202058 L52.7945022,3.52202058 Z M58.4657242,7.34915716 C59.1990981,7.34915716 59.885812,7.15744531 60.2753218,6.86328427 L60.2753218,5.78807495 C59.8462524,6.03557596 59.3228486,6.20598649 58.7517704,6.20598649 C57.9423204,6.20598649 57.3042952,5.89255283 57.1622865,5.21598244 L60.5704972,5.21598244 L60.5704972,4.86501788 C60.5704972,3.51289144 59.7417745,2.3514625 58.3044428,2.3514625 C56.8011784,2.3514625 55.8294326,3.46521707 55.8294326,4.84574526 C55.8294326,6.396684 57.0294068,7.34915716 58.4657242,7.34915716 L58.4657242,7.34915716 Z M57.1622865,4.35987237 C57.21909,3.81719597 57.6187433,3.40739921 58.2486536,3.40739921 C58.8653775,3.40739921 59.2274999,3.86487034 59.2467725,4.35987237 L57.1622865,4.35987237 Z M60.8737873,8.43349562 L62.1589668,8.43349562 L62.1589668,7.22540665 L65.5854357,7.22540665 L65.5854357,8.43349562 L66.8523569,8.43349562 L66.8523569,6.10150861 L66.0713086,6.10150861 L66.0713086,2.46506953 L62.0727472,2.46506953 L62.0534745,3.38914094 C62.0352163,4.74431042 61.8353896,5.55680351 61.4834107,6.10150861 L60.8737873,6.10150861 L60.8737873,8.43349562 Z M62.8537954,6.10150861 C63.1865017,5.29002987 63.2727213,4.42986241 63.2727213,3.58896757 L64.7577274,3.58896757 L64.7577274,6.10150861 L62.8537954,6.10150861 Z M67.5177695,7.22540665 L68.8587381,7.22540665 L68.8587381,3.58896757 L70.7535409,3.58896757 L70.7535409,7.22540665 L72.0955239,7.22540665 L72.0955239,2.46506953 L67.5177695,2.46506953 L67.5177695,7.22540665 Z M76.0555401,2.3514625 C75.2562336,2.3514625 74.7602172,2.7034414 74.4944579,3.05542031 L74.4944579,2.46506953 L73.1514606,2.46506953 L73.1514606,9.12933864 L74.4944579,9.12933864 L74.4944579,6.64519936 C74.7602172,6.98602043 75.2562336,7.34915716 76.0555401,7.34915716 C77.368107,7.34915716 78.291164,6.24453173 78.291164,4.84980266 C78.291164,3.45507358 77.368107,2.3514625 76.0555401,2.3514625 L76.0555401,2.3514625 Z M75.6741451,3.52202058 C76.4267916,3.52202058 76.9593246,4.10324222 76.9593246,4.8548744 C76.9593246,5.59737744 76.4267916,6.17758474 75.6741451,6.17758474 C75.1223396,6.17758474 74.6932702,5.84487846 74.4944579,5.47362694 L74.4944579,4.23612187 C74.6932702,3.85574121 75.1223396,3.52202058 75.6741451,3.52202058 L75.6741451,3.52202058 Z M79.0235236,7.22540665 L80.2813156,7.22540665 L82.4317343,4.42174763 L82.4317343,7.22540665 L83.755459,7.22540665 L83.755459,2.46506953 L82.4986813,2.46506953 L80.3472483,5.26872856 L80.3472483,2.46506953 L79.0235236,2.46506953 L79.0235236,7.22540665 Z M84.8113957,7.22540665 L86.1523643,7.22540665 L86.1523643,5.35900556 L88.104985,5.35900556 L88.104985,7.22540665 L89.4469679,7.22540665 L89.4469679,2.46506953 L88.104985,2.46506953 L88.104985,4.23612187 L86.1523643,4.23612187 L86.1523643,2.46506953 L84.8113957,2.46506953 L84.8113957,7.22540665 Z M90.5029046,7.22540665 L91.758668,7.22540665 L93.910101,4.42174763 L93.910101,7.22540665 L95.2328113,7.22540665 L95.2328113,2.46506953 L93.9760336,2.46506953 L91.825615,5.26872856 L91.825615,2.46506953 L90.5029046,2.46506953 L90.5029046,7.22540665 Z M96.2897624,7.22540665 L97.5536405,7.22540665 L97.5536405,4.28582494 L98.7252129,5.76575928 L99.2577458,5.76575928 L100.439462,4.28582494 L100.439462,7.22540665 L101.704354,7.22540665 L101.704354,2.46506953 L100.381644,2.46506953 L98.9919866,4.23815056 L97.6124727,2.46506953 L96.2897624,2.46506953 L96.2897624,7.22540665 Z M107.282256,6.18671387 C107.091559,6.18671387 106.948536,6.07310685 106.948536,5.82560584 L106.948536,4.21684925 C106.948536,3.01788941 106.00722,2.3514625 104.683496,2.3514625 C103.808113,2.3514625 103.265436,2.55027479 102.922587,2.73184316 L102.922587,3.85574121 C103.292824,3.63664195 103.883175,3.45507358 104.358904,3.45507358 C104.969542,3.45507358 105.615682,3.57882409 105.615682,4.35074324 L105.615682,4.49275202 C105.303262,4.33147062 104.893466,4.19757663 104.246311,4.19757663 C103.313111,4.19757663 102.369767,4.68446387 102.369767,5.75967319 C102.369767,6.73040463 103.103141,7.34915716 104.121547,7.34915716 C104.911724,7.34915716 105.436142,7.03470915 105.758705,6.70200287 C105.940273,7.12092877 106.35007,7.31162627 106.834929,7.31162627 C107.091559,7.31162627 107.395863,7.23555014 107.558159,7.11078528 L107.558159,6.12991036 C107.472954,6.17758474 107.368476,6.18671387 107.282256,6.18671387 L107.282256,6.18671387 Z M105.615682,5.82560584 C105.397597,6.11063774 104.988814,6.31147873 104.541487,6.31147873 C104.073872,6.31147873 103.693491,6.12991036 103.693491,5.69272619 C103.693491,5.28292943 104.073872,5.07397366 104.626692,5.07397366 C105.007073,5.07397366 105.359052,5.17845155 105.615682,5.34886208 L105.615682,5.82560584 Z M109.00462,7.22540665 L110.345588,7.22540665 L110.345588,3.58896757 L111.851896,3.58896757 L111.851896,2.46506953 L107.518599,2.46506953 L107.518599,3.58896757 L109.00462,3.58896757 L109.00462,7.22540665 Z M114.704244,7.34915716 C115.437617,7.34915716 116.125346,7.15744531 116.512827,6.86328427 L116.512827,5.78807495 C116.085786,6.03557596 115.562382,6.20598649 114.99029,6.20598649 C114.181854,6.20598649 113.543829,5.89255283 113.400806,5.21598244 L116.809017,5.21598244 L116.809017,4.86501788 C116.809017,3.51289144 115.980294,2.3514625 114.543977,2.3514625 C113.040712,2.3514625 112.067952,3.46521707 112.067952,4.84574526 C112.067952,6.396684 113.267926,7.34915716 114.704244,7.34915716 L114.704244,7.34915716 Z M113.400806,4.35987237 C113.458624,3.81719597 113.858277,3.40739921 114.486159,3.40739921 C115.104911,3.40739921 115.467034,3.86487034 115.485292,4.35987237 L113.400806,4.35987237 Z M119.482839,3.58896757 L120.949587,3.58896757 L120.949587,7.22540665 L122.290555,7.22540665 L122.290555,2.46506953 L118.189545,2.46506953 L118.160129,3.86487034 C118.131727,5.26061377 118.046522,6.12078123 117.389224,6.12078123 C117.273588,6.12078123 117.198526,6.11063774 117.113321,6.08325034 L117.113321,7.17773228 C117.256344,7.25380841 117.436898,7.26395189 117.616438,7.26395189 C119.187664,7.26395189 119.416906,5.69171185 119.464581,4.25640883 L119.482839,3.58896757 Z M125.66935,7.34915716 C126.40171,7.34915716 127.087409,7.15744531 127.478948,6.86328427 L127.478948,5.78807495 C127.049878,6.03557596 126.526474,6.20598649 125.955396,6.20598649 C125.144932,6.20598649 124.507921,5.89255283 124.364898,5.21598244 L127.772094,5.21598244 L127.772094,4.86501788 C127.772094,3.51289144 126.944386,2.3514625 125.508069,2.3514625 C124.002776,2.3514625 123.032044,3.46521707 123.032044,4.84574526 C123.032044,6.396684 124.232018,7.34915716 125.66935,7.34915716 L125.66935,7.34915716 Z M124.364898,4.35987237 C124.421701,3.81719597 124.822369,3.40739921 125.450251,3.40739921 C126.067989,3.40739921 126.431126,3.86487034 126.449384,4.35987237 L124.364898,4.35987237 Z M128.542999,7.22540665 L129.799777,7.22540665 L131.950195,4.42174763 L131.950195,7.22540665 L133.27392,7.22540665 L133.27392,2.46506953 L132.018157,2.46506953 L129.866724,5.26872856 L129.866724,2.46506953 L128.542999,2.46506953 L128.542999,7.22540665 Z M130.903388,1.95180923 C131.854847,1.95180923 132.607493,1.35232931 132.617637,0.322765667 L131.599231,0.322765667 C131.589087,0.742705912 131.323328,1.01860868 130.894259,1.01860868 C130.457074,1.01860868 130.189287,0.742705912 130.189287,0.322765667 L129.181024,0.322765667 C129.191168,1.35232931 129.932656,1.95180923 130.903388,1.95180923 L130.903388,1.95180923 Z" id="Fill-11" fill="#1A1A18" mask="url(#mask-2)"></path>
                </g>
            </g>
        </g>
    </g>
</svg>